<svg xmlns="http://www.w3.org/2000/svg" xmlns:xlink="http://www.w3.org/1999/xlink" viewBox="0 0 1023.74 230.66"><defs><style>.cls-1{fill:none;}.cls-2{clip-path:url(#clip-path);}.cls-3{fill:#fc0;}.cls-4{fill:#d40511;}</style><clipPath id="clip-path" transform="translate(0 0.28)"><rect class="cls-1" width="1024" height="230.14"/></clipPath></defs><g id="Layer_2" data-name="Layer 2"><g id="Layer_1-2" data-name="Layer 1"><g class="cls-2"><path class="cls-3" d="M1023.74-.28V230.38H0V-.28H1023.74" transform="translate(0 0.28)"/></g><path class="cls-4" d="M180,41.22,147.66,86.76H327.4c2.16.8,5.66-.26,5.66,3.24v1.34c-6.2,10.78-14.82,20.74-21.56,31.26v1.08l-.26.8.26.26c0,3.5,7.28,3.5,9.7,3.24H394l21.56-29.92,1.08-1.88c5.66-9.44,5.12-21.56-.26-31l-1.08-2.42-1.88-2.16c-10-14.56-28-19.14-44.74-19.4H180" transform="translate(0 0.28)"/><path class="cls-4" d="M134.2,188.62,200,97.8h83c7.54.54,7.28,4,3,9.44l-16.7,23.44-.8,1.08-1.08,1.34-.26.8v3l.26.8.8.8,1.08.26,1.34.26,1.88.26h.8l1.08.26H385.88L384,141.92c-20.74,27.76-54.44,47.7-89.46,46.62l-160.34.08" transform="translate(0 0.28)"/><polyline class="cls-4" points="510.66 139.86 474.82 188.9 381.04 188.9 416.34 139.86 510.66 139.86"/><polyline class="cls-4" points="654.56 128.28 424.42 128.28 487.48 41.5 581.26 41.5 545.14 91.62 586.92 91.62 623.02 41.5 717.34 41.5 654.56 128.28"/><polyline class="cls-4" points="646.2 139.86 610.62 188.9 516.58 188.9 552.42 139.86 646.2 139.86"/><polyline class="cls-4" points="0 159 138.5 159 130.96 169.78 0 169.78 0 159"/><polyline class="cls-4" points="0 139.86 152.52 139.86 144.98 150.1 0 150.1 0 139.86"/><polyline class="cls-4" points="0 178.4 124.5 178.4 116.96 188.9 0 188.9 0 178.4"/><polyline class="cls-4" points="1023.74 169.78 885.76 169.78 893.3 159 1023.74 159 1023.74 169.78"/><polyline class="cls-4" points="1023.74 188.9 871.74 188.9 879.56 178.4 1023.74 178.4 1023.74 188.9"/><polyline class="cls-4" points="907.58 139.86 1023.74 139.86 1023.74 150.1 900.32 150.1 907.58 139.86"/><polyline class="cls-4" points="847.5 41.5 784.44 128.28 684.74 128.28 748.06 41.5 847.5 41.5"/><path class="cls-4" d="M676.92,139.58l-10,14c-17.52,25.6,17.24,36.38,37.18,35H855l35.84-49H676.92" transform="translate(0 0.28)"/></g></g></svg>