<svg xmlns="http://www.w3.org/2000/svg" xmlns:xlink="http://www.w3.org/1999/xlink" viewBox="0 0 800.34 512"><defs><style>.cls-1{fill:#fff;}.cls-2{fill:#f48120;}.cls-3{fill:#231f20;}.cls-4{fill:url(#linear-gradient);}.cls-5{opacity:0.65;isolation:isolate;fill:url(#linear-gradient-2);}</style><linearGradient id="linear-gradient" x1="450.88" y1="-330.42" x2="408.22" y2="-263.63" gradientTransform="matrix(1, 0, 0, -1, 0, -66)" gradientUnits="userSpaceOnUse"><stop offset="0" stop-color="#f89f20"/><stop offset="0.25" stop-color="#f79a20"/><stop offset="0.53" stop-color="#f68d20"/><stop offset="0.62" stop-color="#f58720"/><stop offset="0.72" stop-color="#f48120"/><stop offset="1" stop-color="#f37521"/></linearGradient><linearGradient id="linear-gradient-2" x1="444.14" y1="-329.52" x2="381.8" y2="-207.66" gradientTransform="matrix(1, 0, 0, -1, 0, -66)" gradientUnits="userSpaceOnUse"><stop offset="0" stop-color="#f58720"/><stop offset="0.36" stop-color="#e16f27"/><stop offset="0.7" stop-color="#d4602c"/><stop offset="0.98" stop-color="#d05b2e"/></linearGradient></defs><g id="Layer_2" data-name="Layer 2"><g id="Layer_1-2" data-name="Layer 1"><polygon class="cls-1" points="2.74 3.16 797.39 3.16 797.39 509.06 2.95 509.06 2.74 3.16"/><path class="cls-2" d="M794.65,284.54S577.51,437.66,179.86,506.33H794.65Z"/><path class="cls-3" d="M797.39.2H0V512H800.34V0h-3Zm-2.74,5.69V506.11H5.89V5.89Z"/><path class="cls-3" d="M69.92,156.69H36.86V272.54H69.92c17.48,0,30.12-4.21,41.28-13.27a57.92,57.92,0,0,0,21.06-44.44C132.06,180.5,106.58,156.69,69.92,156.69Zm26.54,87.2c-7.16,6.31-16.21,9.27-31,9.27H59.4V176.5h6.11c14.54,0,23.39,2.53,31,9.27,7.8,6.95,12.43,17.69,12.43,28.85S104.25,236.94,96.46,243.89Z"/><rect class="cls-3" x="142.59" y="156.69" width="22.54" height="115.85"/><path class="cls-3" d="M220.3,201.13c-13.48-5-17.48-8.42-17.48-14.53,0-7.38,7.16-12.85,16.85-12.85,6.74,0,12.43,2.73,18.12,9.47l11.8-15.38A50.91,50.91,0,0,0,215.47,155c-20.43,0-36.22,14.32-36.22,33.28,0,16,7.38,24.21,28.43,31.81a112.69,112.69,0,0,1,15.59,6.53,14.1,14.1,0,0,1,6.73,12c0,9.47-7.37,16.43-17.47,16.43-10.74,0-19.38-5.47-24.64-15.39l-14.53,14.12c10.31,15.38,23,22.12,40,22.12,23.39,0,40-15.59,40-38.13C253.8,219,246,210.61,220.3,201.13Z"/><path class="cls-3" d="M260.74,214.83c0,34.12,26.74,60.44,61.07,60.44,9.69,0,18.12-1.89,28.21-6.73V242c-9,9-17,12.63-27.16,12.63-22.75,0-39-16.42-39-40,0-22.32,16.63-39.82,37.9-39.82,10.74,0,19,3.8,28.22,13.06V161.3c-9.9-5.05-18.12-7.16-27.81-7.16C288.33,154.16,260.74,181.12,260.74,214.83Z"/><polygon class="cls-3" points="529.49 234.62 498.53 156.69 473.89 156.69 522.96 275.48 535.18 275.48 585.09 156.69 560.66 156.69 529.49 234.62"/><polygon class="cls-3" points="595.41 272.54 659.44 272.54 659.44 252.95 617.95 252.95 617.95 221.78 657.97 221.78 657.97 202.18 617.95 202.18 617.95 176.5 659.44 176.5 659.44 156.69 595.41 156.69 595.41 272.54"/><path class="cls-3" d="M748.94,191c0-21.7-15-34.12-41.06-34.12H674.4V272.74h22.54V226.19h2.95l31.17,46.55h27.81l-36.44-48.86C739.47,220.3,748.94,208.71,748.94,191Zm-45.48,19.16h-6.54V175h7c14.11,0,21.7,5.9,21.7,17.28C725.58,203.87,718,210.18,703.46,210.18Z"/><circle class="cls-4" cx="419.34" cy="215.03" r="61.71"/><circle class="cls-5" cx="419.34" cy="215.03" r="61.71"/><path class="cls-3" d="M763.28,161.12c0-2.11-1.47-3.16-3.8-3.16H756.1v10.11h2.54v-4l3,4h3l-3.38-4.2A2.59,2.59,0,0,0,763.28,161.12Zm-4.22,1.47h-.42v-2.74h.42c1.26,0,1.89.42,1.89,1.27C761,162.16,760.32,162.59,759.06,162.59Z"/><path class="cls-3" d="M759.9,154.16a8.85,8.85,0,1,0,8.85,8.85A8.9,8.9,0,0,0,759.9,154.16Zm0,16.23a7.39,7.39,0,1,1,7-7.38A7.28,7.28,0,0,1,759.9,170.39Z"/></g></g></svg>