<svg xmlns="http://www.w3.org/2000/svg" viewBox="0 0 1024.78 431.67"><defs><style>.cls-1{fill:#3f3f42;}.cls-1,.cls-10,.cls-11,.cls-12,.cls-13,.cls-14,.cls-15,.cls-16,.cls-17,.cls-18,.cls-19,.cls-2,.cls-20,.cls-21,.cls-22,.cls-23,.cls-24,.cls-25,.cls-26,.cls-27,.cls-28,.cls-29,.cls-3,.cls-30,.cls-31,.cls-32,.cls-33,.cls-34,.cls-35,.cls-4,.cls-5,.cls-6,.cls-7,.cls-8,.cls-9{fill-rule:evenodd;}.cls-2{fill:#dc0032;}.cls-3{fill:#db0032;}.cls-4{fill:#da0032;}.cls-5{fill:#d90032;}.cls-6{fill:#d80032;}.cls-7{fill:#d70032;}.cls-8{fill:#d60032;}.cls-9{fill:#d50032;}.cls-10{fill:#d40032;}.cls-11{fill:#d30032;}.cls-12{fill:#d20032;}.cls-13{fill:#d10032;}.cls-14{fill:#d00032;}.cls-15{fill:#cf0032;}.cls-16{fill:#ce0032;}.cls-17{fill:#cd0032;}.cls-18{fill:#cc0032;}.cls-19{fill:#cb0032;}.cls-20{fill:#ca0032;}.cls-21{fill:#c90032;}.cls-22{fill:#c80033;}.cls-23{fill:#c70033;}.cls-24{fill:#c60033;}.cls-25{fill:#c50033;}.cls-26{fill:#c40033;}.cls-27{fill:#c30033;}.cls-28{fill:#c20033;}.cls-29{fill:#c10033;}.cls-30{fill:#c00033;}.cls-31{fill:#bf0033;}.cls-32{fill:#be0033;}.cls-33{fill:#bd0033;}.cls-34{fill:#bc0033;}.cls-35{fill:#b03;}</style></defs><g id="Layer_2" data-name="Layer 2"><g id="Layer_1-2" data-name="Layer 1"><path id="path7" class="cls-1" d="M672.27,346.31c-19,5.31-43.78,7.52-65,7.52-55.29,0-91.55-28.75-91.55-81.38,0-50,34-82.27,83.59-82.27,11.05,0,23,1.33,30.07,4.87V122.51h42.9ZM629.37,232.2c-6.63-3.1-15.92-4.86-26.54-4.86-26.09,0-43.34,15.92-43.34,43.78,0,29.63,18.58,46.44,49.09,46.44,5.31,0,13.72,0,20.79-1.77Zm395.41,114.11c-19,5.31-43.79,7.52-65.46,7.52-54.84,0-91.55-28.75-91.55-81.38,0-50,34.05-82.27,83.59-82.27,11.5,0,23,1.33,30.07,4.87V122.51h43.35ZM981.43,232.2c-6.63-3.1-15.48-4.86-26.09-4.86-26.54,0-43.79,15.92-43.79,43.78,0,29.63,19,46.44,49.54,46.44,5.31,0,13.27,0,20.34-1.77Zm-241.49,0c7.08-3.1,17.25-4,25.66-4,26.53,0,44.67,15,44.67,42,0,31.84-20.35,46.44-47.33,46.88v36.71h2.22c55.72,0,88.9-30.52,88.9-84.92,0-49.54-35.39-78.73-87.58-78.73-26.54,0-52.63,6.2-69.88,13.27V413.54h43.34Z"/><path id="path9" class="cls-2" d="M368,93.76h0Z"/><path id="path11" class="cls-2" d="M357.37,88l7.07,8,4-2.22Z"/><path id="path13" class="cls-2" d="M346.75,82.27l13.71,15.92,4.87-2.66L360,89.34Z"/><path id="path15" class="cls-2" d="M335.7,76.52l20.78,23.88,4.87-2.65L349.41,83.59Z"/><path id="path17" class="cls-2" d="M325.08,70.77l27.42,31.84,4.87-2.65-19-22.12Zm52.63,56.17-3.09,1.77,3.09,3.53Z"/><path id="path19" class="cls-2" d="M314.47,65l34,39.8,4.87-2.65L327.73,72.09Zm61.47,62.8-4.86,3.1,6.63,8v-8.41l-1.77-2.65Z"/><path id="path21" class="cls-2" d="M303.41,59.27,344.54,107l5.31-2.65-32.73-38ZM372,130l-4.86,3.1,10.61,12.38v-8.4Z"/><path id="path23" class="cls-2" d="M292.79,53.52,341,109.24l4.87-2.65-39.81-46ZM368,132.69l-4.86,2.65,14.59,17.25v-8.4Z"/><path id="path25" class="cls-2" d="M282.18,47.77,337,111.46l4.87-2.66-46.44-54ZM364,134.9l-4.86,2.65,18.57,21.67v-8.4Z"/><path id="path27" class="cls-2" d="M271.12,42,333,113.67l4.87-2.66L284.83,49.09ZM360,137.11l-4.86,2.65,22.55,26.1v-8.41Z"/><path id="path29" class="cls-2" d="M260.51,36.27l68.55,80,4.87-3.09L273.78,43.34Zm95.53,103L351.18,142l26.53,31v-8.4Z"/><path id="path31" class="cls-2" d="M249.45,30.52l75.63,88,4.87-3.09L263.16,37.59Zm103.05,111-5.3,2.66,30.51,35.38v-8.41Z"/><path id="path33" class="cls-2" d="M238.83,24.77l82.27,96,5.31-3.09L252.55,31.84Zm109.69,119-4.86,2.66,34,40.25V177.8Z"/><path id="path35" class="cls-2" d="M228.22,19,317.56,123l4.87-3.1L241.49,26.09ZM344.54,146l-4.86,2.66,38,44.67v-8.4Z"/><path id="path37" class="cls-2" d="M217.16,12.83l96.42,112.34,4.87-3.1L230.87,20.35Zm123.4,135.34-4.86,2.65,42,49.09v-8.4Z"/><path id="path39" class="cls-2" d="M206.55,7.08,309.6,127.38l4.87-2.66L220.26,14.6Zm130,143.3L331.71,153l46,54v-8.85Z"/><path id="path41" class="cls-2" d="M195.93,1.77,305.62,129.59l4.86-2.65L209.2,8.85,195.93,1.77ZM332.6,152.59l-4.87,2.65,50,58.38v-8.4Z"/><path id="path43" class="cls-2" d="M188.86,0h0L301.64,131.8l4.86-2.65L198.59,3.1l-2.66-1.33A12.93,12.93,0,0,0,188.86,0ZM328.62,154.8l-4.87,2.65,54,62.81v-8.41Z"/><path id="path45" class="cls-2" d="M188.86,0a22.33,22.33,0,0,0-5.31.88L297.66,134l5.31-2.65L190.18,0ZM325.08,157l-4.86,2.66,57.49,67.67v-8.85Z"/><path id="path47" class="cls-2" d="M184.88.44a14.54,14.54,0,0,0-2.66,1.33L179.57,3.1,294.12,136.22l4.87-2.65ZM321.1,159.22l-4.87,3.1L377.71,234v-8.4Z"/><path id="path49" class="cls-2" d="M180.45,2.21l-4.86,2.66L290.14,138.44l4.86-2.66ZM317.12,161.43l-4.87,3.1,65.46,76.07v-8.4Z"/><path id="path51" class="cls-2" d="M176.47,4.42l-4.86,2.66L286.16,140.65,291,138ZM313.14,163.65l-4.87,3.09,69.44,80.94v-8.4Z"/><path id="path53" class="cls-2" d="M172.49,6.63l-4.86,2.66L282.18,142.86,287,140.2ZM309.16,165.86,304.29,169l73.42,85.36v-8.4Z"/><path id="path55" class="cls-2" d="M168.51,8.85l-4.86,2.65L278.2,145.07l4.86-2.65ZM305.18,168.07l-4.87,3.09L377.71,261v-8.4Z"/><path id="path57" class="cls-2" d="M164.53,11.06l-4.86,2.65L274.22,147.28l4.86-2.65ZM301.64,170.28l-4.87,3.1L377.71,268v-8.41Z"/><path id="path59" class="cls-2" d="M160.55,12.83l-4.87,3.09,115,133.57,4.86-2.65Zm137.11,160.1-4.87,2.66,84.92,99.07v-8.4Z"/><path id="path61" class="cls-2" d="M156.57,15l-4.87,2.65,115,134,4.86-2.65ZM293.68,175.15l-4.87,2.65,88.9,103.94v-8.85Z"/><path id="path63" class="cls-2" d="M152.59,17.25l-4.87,2.65,115,134.46,4.86-3.1ZM289.7,177.36,284.83,180l92.88,108.36V280Z"/><path id="path65" class="cls-2" d="M148.61,19.46l-4.87,2.65,115,134.46,4.86-3.1ZM285.72,179.57l-4.87,2.65L377.71,295v-8.4Z"/><path id="path67" class="cls-2" d="M144.63,21.67l-4.87,2.66,115,134.45,4.86-3.1ZM281.74,181.78l-4.87,2.65L377.71,302.08v-8.84Z"/><path id="path69" class="cls-2" d="M140.65,23.88l-4.87,2.66L250.78,161l4.86-3.09ZM278.2,184l-4.87,2.66L377.71,308.72v-8.41Z"/><path id="path71" class="cls-2" d="M136.67,25.65l-5.31,2.66L247.24,163.2l4.86-3.09ZM274.22,186.2l-4.87,2.66L377.71,315.35V307Z"/><path id="path73" class="cls-2" d="M132.69,27.86l-5.31,2.66L243.7,165.86a3.4,3.4,0,0,1,1.77-1.77l2.65-1.77ZM270.24,188.41l-4.87,2.66,111.46,130a13,13,0,0,0,.88-4v-3.54L270.24,188.41Z"/><path id="path75" class="cls-2" d="M128.71,30.08l-5.31,2.65,119,138.43V169.4a9.41,9.41,0,0,1,1.77-4.43ZM266.26,190.63l-3.54,2.21c-.44,0-.89.44-1.33.44L374.62,325.52a15.06,15.06,0,0,0,2.65-5.3Z"/><path id="path77" class="cls-2" d="M124.72,32.29l-5.3,2.65,123,143.3V169.4ZM253.87,191.07,371.52,328.62c1.33-.89,2.65-2.65,4-4L262.28,192.84a7.61,7.61,0,0,1-6.2,0Z"/><path id="path79" class="cls-2" d="M120.74,34.5l-5.3,2.65,252.1,293.68,3.54-1.77,1.32-1.33L256.53,192.84h-.45l-10.17-6.19c-.88-.45-1.33-1.33-2.21-2.22h0a16.83,16.83,0,0,1-1.33-3.09v-4.87Z"/><path id="path81" class="cls-2" d="M116.76,36.71l-5.3,2.65L363.56,333l4.86-2.65Z"/><path id="path83" class="cls-2" d="M112.78,38.48l-5.3,2.65L360,335.25l4.87-2.65Z"/><path id="path85" class="cls-2" d="M108.8,40.69l-5.3,2.65L356,337.46l4.87-2.65Z"/><path id="path87" class="cls-2" d="M104.82,42.9l-5.31,2.66L352.06,339.68l4.87-2.66Z"/><path id="path89" class="cls-2" d="M100.4,45.11l-4.87,2.66L348.08,342.33l4.86-3.1Z"/><path id="path91" class="cls-2" d="M96.42,47.32,91.55,50,344.1,344.54l4.86-3.09Z"/><path id="path93" class="cls-2" d="M92.44,49.54l-4.87,2.65,253,294.56,4.87-3.09Z"/><path id="path95" class="cls-2" d="M88.46,51.31,83.59,54l253,295,4.87-3.09Z"/><path id="path97" class="cls-2" d="M84.48,53.52l-4.87,2.65,253,295,4.86-2.66Z"/><path id="path99" class="cls-2" d="M80.5,55.73l-4.87,2.65,123,143.3,4,2.66a6.54,6.54,0,0,1,3.54,5.3v.45l122.51,143.3,4.86-2.66Z"/><path id="path101" class="cls-2" d="M76.52,57.94l-4.87,2.65,115.44,134.9,14.59,8ZM205.66,208.32c0,.44.45.88.45,1.32v7.52L324.64,355.6l4.86-2.66Z"/><path id="path103" class="cls-2" d="M72.53,60.15,67.67,62.8,175.59,188.86l14.59,8ZM206.11,215.39v8.41l115,134,4.87-2.65Z"/><path id="path105" class="cls-2" d="M68.55,62.36,63.69,65l100.84,117.2,14.15,8ZM206.11,222v8.84L317.12,360l4.86-2.65Z"/><path id="path107" class="cls-2" d="M64.57,64.13l-4.86,2.66L153,175.59l14.15,8.4Zm141.54,165v8.41l107,124.72,4.86-2.65Z"/><path id="path109" class="cls-2" d="M60.59,66.34,55.73,69,141.53,169l14.15,8.41Zm145.52,169.4v8.4l103.05,120.3,4.86-2.65Z"/><path id="path111" class="cls-2" d="M56.61,68.55l-4.86,2.66L130,162.76l14.16,8Zm149.5,173.82v8.85L305.18,367.1,310,364Z"/><path id="path113" class="cls-2" d="M52.63,70.77l-4.86,2.65,70.76,82.71,14.16,8ZM206.11,249.45v8.4l95.53,111.46,4.86-3.1Z"/><path id="path115" class="cls-2" d="M48.65,73l-4.86,2.65L107,149.49l14.6,8Zm157.46,183.1v8.41l91.55,107,4.86-3.1Z"/><path id="path117" class="cls-3" d="M44.67,75.19l-4.86,2.65,55.72,65,14.6,8.4Zm115.88,143.3,11.5,13.27v-4.87a3.65,3.65,0,0,0-1.77-2.65Zm45.56,44.23v8.84l87.57,102.17,4.86-3.09Z"/><path id="path119" class="cls-2" d="M40.69,77l-4.86,2.65L84,136.22l14.6,8.41ZM149.05,211.85l23,26.54V230l-8.4-9.73Zm57.06,57.94v8.41l83.59,97.74,4.86-2.65Z"/><path id="path121" class="cls-2" d="M36.71,79.17l-4.87,2.65L73,130l14.15,8ZM137.55,205.66l34.5,39.81v-8.4l-19.9-23.45Zm68.56,70.77v8.4l79.61,93.32,4.86-2.65Z"/><path id="path123" class="cls-2" d="M32.73,81.38,27.86,84,61.48,123.4l14.15,8ZM126.49,199l45.56,53.07v-8.4L140.65,207Zm79.62,84.48v8.4l76.07,88.46,4.86-2.66Z"/><path id="path125" class="cls-2" d="M28.75,83.59l-4.87,2.66L50,116.76l14.15,8ZM115,192.39l57.06,66.35v-8.41l-42.9-49.53Zm91.12,97.75v8.4l72.09,84,4.86-2.66Z"/><path id="path127" class="cls-2" d="M24.77,85.8,19.9,88.46l18.58,21.67,14.15,8.4Zm78.73,100,68.55,80.05v-8.4l-54.4-63.25Zm102.61,111v8.41l68.11,79.61,4.86-2.65Z"/><path id="path129" class="cls-2" d="M20.79,88l-4.87,2.65L27,103.5l14.59,8.4ZM92,179.57l80.05,92.88v-8.4l-65.9-76.52ZM206.11,303.85v8.4L270.24,387l4.86-2.65Z"/><path id="path131" class="cls-2" d="M16.81,89.78,11.5,92.44l4,4.86,14.6,8ZM80.5,172.93l91.55,106.59v-8.84l-77-89.78ZM206.11,310.48v8.41l60.15,70.76,4.86-3.09Z"/><path id="path133" class="cls-2" d="M12.83,92l-3.1,1.76,8.85,4.87ZM69,166.3,172.05,286.16v-8.4L83.59,174.7ZM206.11,317.12V326l56.61,65.9,4.86-3.1Z"/><path id="path135" class="cls-2" d="M57.94,159.67,172.05,292.79v-8.4l-100-116.32ZM206.11,324.2v8.4l52.63,61.48,4.86-3.1Z"/><path id="path137" class="cls-2" d="M46.44,153.47l125.61,146.4V291L60.59,161.43ZM206.11,330.83v8.4l48.65,57.06,4.86-3.1Z"/><path id="path139" class="cls-2" d="M34.94,146.84,172.05,306.5v-8.4l-123-143.3ZM206.11,337.46v8.85l44.67,52.19,4.86-2.65Z"/><path id="path141" class="cls-3" d="M23.44,140.2,172.05,313.14v-8.4L37.59,148.61ZM206.11,344.54v8.4l40.69,47.77,4.86-2.65Z"/><path id="path143" class="cls-4" d="M11.94,133.57,172.05,320.22v-8.41L26.09,142ZM206.11,351.18v8.4l37.15,43.34,4.86-2.65Z"/><path id="path145" class="cls-5" d="M.44,127.38,172.05,326.85v-8.4L15,135.34ZM206.11,357.81v8.85l33.17,38.47,4.86-2.65Z"/><path id="path147" class="cls-6" d="M0,126.94v6.19L172.05,333.48v-8.4L3.54,128.71Zm206.11,238v5.3a3.37,3.37,0,0,1-.89,2.21l30.08,35,4.86-2.66Z"/><path id="path149" class="cls-7" d="M0,131.36v8.84L172.05,340.56v-8.4ZM205.66,371.52c-.44,1.77-1.77,3.54-3.09,4l-.45.44,29.2,33.62,4.86-2.66Z"/><path id="path151" class="cls-8" d="M0,138.44v8.4L172.05,347.2v-8.41ZM203,375.06c0,.44,0,.44-.44.44l-4.43,2.65,29.2,33.62,4.86-2.65L203,375.06Z"/><path id="path153" class="cls-9" d="M0,145.07v8.4L172.05,353.83v-8.4Zm199.47,232.2-5.31,3.1,29.64,34.05,4.86-3.09Z"/><path id="path155" class="cls-10" d="M0,152.15v8.4L172.05,360.91V352.5ZM195.49,379.48l-3.1,1.77a5.6,5.6,0,0,1-2.65.44l30.08,34.94,4.86-3.09-29.19-34.06Z"/><path id="path157" class="cls-11" d="M0,158.78v8.4L172.05,367.54v-8.4Zm181.78,220.7,34.06,39.37,4.86-3.1-29.63-34.06c-.44,0-1.33.45-1.77.45h-.44a6.44,6.44,0,0,1-3.1-.89l-4-1.77Z"/><path id="path159" class="cls-12" d="M0,165.42v8.84l211.85,246.8,4.87-3.1-31.84-37.15-9.73-5.31a6.14,6.14,0,0,1-3.1-5.31v-4.42Z"/><path id="path161" class="cls-13" d="M0,172.49v8.41L207.87,423.27l4.87-2.66Z"/><path id="path163" class="cls-14" d="M0,179.13v8.4l203.89,238,4.87-2.65Z"/><path id="path165" class="cls-15" d="M0,185.76v8.85L200.36,427.69l4.86-2.65Z"/><path id="path167" class="cls-16" d="M0,192.84v8.4L196.38,429.9l4.86-2.65Z"/><path id="path169" class="cls-17" d="M0,199.47v8.4l192,223.8,4-1.33,1.33-.88Z"/><path id="path171" class="cls-18" d="M0,206.11V215L186.2,431.67h2.66a12.33,12.33,0,0,0,4-.44Z"/><path id="path173" class="cls-19" d="M0,213.18v8.41L176,426.81l6.19,3.53a10.47,10.47,0,0,0,5.31,1.33Z"/><path id="path175" class="cls-20" d="M0,219.82v8.4l164.53,192,14.6,8.41Z"/><path id="path177" class="cls-21" d="M0,226.89v8.41L153,413.54l14.6,8.4Z"/><path id="path179" class="cls-22" d="M0,233.53v8.4l141.53,165,14.15,8.41Z"/><path id="path181" class="cls-23" d="M0,240.16v8.41l130,151.7,14.16,8.4Z"/><path id="path183" class="cls-24" d="M0,247.24v8.4L118.09,393.19l14.6,8.41Z"/><path id="path185" class="cls-25" d="M0,253.87v8.41L106.59,386.56l14.6,8.4Z"/><path id="path187" class="cls-26" d="M0,260.51v8.4l95.09,111,14.6,8.41Z"/><path id="path189" class="cls-27" d="M0,267.58V276l83.59,97.3,14.6,8.4Z"/><path id="path191" class="cls-28" d="M0,274.22v8.4l72.09,84,14.6,8.4Z"/><path id="path193" class="cls-29" d="M0,280.85v8.85L60.59,360l14.16,8.4Z"/><path id="path195" class="cls-30" d="M0,287.93v8.4l48.65,57.06,14.6,8.4Z"/><path id="path197" class="cls-31" d="M0,294.56V303l37.15,43.78,14.6,8Z"/><path id="path199" class="cls-32" d="M0,301.2V310l25.65,29.64,14.6,8.4Z"/><path id="path201" class="cls-33" d="M0,308.27v8.41L14.15,333l14.6,8.41Z"/><path id="path203" class="cls-34" d="M0,314.91v2.21a15.73,15.73,0,0,0,6.63,11.94l10.62,5.75Z"/><path id="path205" class="cls-35" d="M2.65,325.08c.89.89,1.33,1.77,2.22,2.21Z"/></g></g></svg>