<svg xmlns="http://www.w3.org/2000/svg" viewBox="0 0 1024.04 375.39"><defs><style>.cls-1{fill:#f60;}.cls-2{fill:#652c8f;}</style></defs><g id="Layer_2" data-name="Layer 2"><g id="Layer_1-2" data-name="Layer 1"><polygon class="cls-1" points="593.1 235.39 659.59 160.76 593.1 85.85 663.24 85.85 696.35 122.32 728.05 85.85 795.66 85.85 729.45 160.48 796.78 235.39 726.08 235.39 693.54 198.92 661.27 235.39 593.1 235.39"/><polygon class="cls-1" points="593.1 52.46 517.91 52.46 517.91 85.85 593.1 85.85 593.1 136.35 517.91 136.35 517.91 182.64 593.1 182.64 593.1 235.39 462.36 235.39 462.36 0 593.1 0 593.1 52.46"/><path class="cls-2" d="M407.37,0V96.51h-.56c-12.35-14-27.5-18.8-45.17-18.8-36.19,0-63.69,24.69-73.23,57.24-10.94-35.91-39-57.8-81.08-57.8-34,0-60.88,15.15-74.63,40.12V86.41H62.56V53h76.6V.56H0V236.23H62.56v-99h62.29A89.56,89.56,0,0,0,122,160.48c0,49.1,37.6,83.61,85.57,83.61,40.4,0,66.78-18.8,80.8-53.31H234.83c-7.3,10.38-12.63,13.47-27.22,13.47-16.83,0-31.42-14.59-31.42-32H285.33c4.77,39,35.07,72.67,76.87,72.67a53.87,53.87,0,0,0,44.61-23.85h.56v15.15h55.27V.56H407.37ZM177.87,137.19c3.37-14.87,15.15-24.69,29.46-24.69,16,0,26.94,9.54,29.74,24.69ZM373.7,199.48c-20.2,0-32.82-19.08-32.82-38.72,0-21,10.94-41.52,32.82-41.52,22.73,0,32,20.2,32,41.52C405.69,181,396.15,199.48,373.7,199.48Z"/><path class="cls-2" d="M492.66,348.17c8.42,0,17.67-5.05,19.36-14h8.41c-3.08,12.91-14.3,20.2-28,20.2-25.53,0-35.91-19.91-35.91-43.48,0-23.85,10.38-43.49,35.91-43.49,13.75,0,25,7.3,28,20.2H512c-1.69-9-10.94-14-19.36-14-21,0-28.34,19.36-28.34,37.32C464.6,329.09,471.62,348.17,492.66,348.17Z"/><path class="cls-2" d="M555.5,354.63c-18,0-27.49-13.75-27.49-30.87s9.54-30.86,27.49-30.86S583,306.65,583,323.76C583.28,340.6,573.46,354.63,555.5,354.63Zm0-5.34c14,0,19.92-12.9,19.92-25.53s-5.89-25.53-19.92-25.53-19.91,12.91-19.91,25.53S541.48,349.29,555.5,349.29Z"/><path class="cls-2" d="M620.31,299.64c-11.78,0-15.71,9.82-15.71,20.2v33.38h-7V311.7c0-5.61,0-11.5-.28-17.39h7l.56,8.41c3.37-6.73,9.26-9.82,17.12-9.82a13.63,13.63,0,0,1,3.36.28v7A39.29,39.29,0,0,0,620.31,299.64Z"/><path class="cls-2" d="M640,375.39h-7V311.7c0-5.89,0-11.78-.28-17.68h7l.28,9c4.49-7,10.38-10.38,19.08-10.38,18.24,0,26.09,15.15,26.09,30.86,0,16-7.85,30.86-26.09,30.86-8.14,0-14.59-3.08-18.8-9.81v30.86Zm37.32-51.63c0-12.62-5.33-25-19.36-25-13.19,0-18,10.95-18,25s4.77,25,18,25C671.94,348.73,677.27,336.39,677.27,323.76Z"/><path class="cls-2" d="M721.31,354.63c-17.95,0-27.49-13.75-27.49-30.87s9.54-30.86,27.49-30.86,27.5,13.75,27.5,30.86C749.09,340.6,739.27,354.63,721.31,354.63Zm0-5.34c14,0,19.92-12.9,19.92-25.53s-5.89-25.53-19.92-25.53-19.92,12.91-19.92,25.53S707.29,349.29,721.31,349.29Z"/><path class="cls-2" d="M786.12,299.64c-11.78,0-16,9.82-16,20.2v33.38h-7V311.7c0-5.61,0-11.5-.28-17.39h7l.56,8.41c3.37-6.73,9.26-9.82,17.12-9.82a13.63,13.63,0,0,1,3.36.28v7A35.68,35.68,0,0,0,786.12,299.64Z"/><path class="cls-2" d="M832.42,353.22a65.28,65.28,0,0,1-.85-7.85c-4.49,6.73-10.38,9.26-19.64,9.26-10.66,0-20.48-5.34-20.48-17.4,0-17.11,18-19.64,32.55-19.64a45.71,45.71,0,0,1,6.73.28v-4.49c0-10.1-4.21-15.15-14.59-15.15-7.57,0-12.9,2.81-13.74,11.23h-7c0-12.63,11.22-16.56,21-16.56,14.59,0,21.61,3.93,21.61,18.52v19.92a130.57,130.57,0,0,0,1.4,21.88Zm-1.69-30c-2,0-3.65-.28-5.61-.28-9.82,0-26.09.56-26.09,14,0,8.14,6.73,12.34,14.31,12.34,11.78,0,17.67-7,17.67-20.48l-.28-5.61Z"/><path class="cls-2" d="M868.61,354.63c-8.42,0-12.35-5.05-12.35-13.47V299.64h-9.54v-5.33h9.54V282.24l7-3.08v15.15h13.18v5.33H863.28v38.43c0,8.14,1.4,10.66,7.29,10.66a16.69,16.69,0,0,0,6.17-1.4v6.17C874.5,353.78,872.25,354.63,868.61,354.63Z"/><path class="cls-2" d="M885.72,277.75v-9h8.42v9Zm.56,75.47V294.31h7v58.91Z"/><path class="cls-2" d="M935.1,354.63c-18,0-27.5-13.75-27.5-30.87s9.54-30.86,27.5-30.86,27.49,13.75,27.49,30.86C962.87,340.6,953.06,354.63,935.1,354.63Zm0-5.34c14,0,19.92-12.9,19.92-25.53s-5.89-25.53-19.92-25.53-19.92,12.91-19.92,25.53S921.07,349.29,935.1,349.29Z"/><path class="cls-2" d="M983.64,294.31l.28,9c4.21-7,10.38-10.38,19.07-10.38,15.72,0,21,8.7,21,23.57v37h-7V319.27c0-10.94-2.52-20.2-15.15-20.2-13.18,0-17.67,11.79-17.67,23.57v31.14h-7V311.7c0-5.89,0-11.78-.28-17.68l6.74.29Z"/></g></g></svg>