<svg xmlns="http://www.w3.org/2000/svg" viewBox="0 0 592.82 512"><g id="Layer_2" data-name="Layer 2"><g id="Layer_1-2" data-name="Layer 1"><path d="M24.2,24v464H306c170.2,0,262.83-79.2,262.83-232.5C568.85,98,468.46,24,306,24ZM306,0c249.52,0,286.8,159.9,286.8,255.42C592.82,420.88,490.93,512,306,512H0V0ZM61.94,289.46h90.2V450.17H61.94Zm101.2-80.93a56.1,56.1,0,0,1-112.19,0c0-74.68,112.07-74.68,112.19,0Zm34.39-26.17v52.45h16.09c11.12,0,21.42-3.24,21.42-26.63,0-22.69-11.46-25.82-21.42-25.82Zm268-25.93h26.05v78.38h38.56C519.53,92.63,407.68,61.94,306,61.94H197.64v94.49h16c29.3,0,47.47,19.91,47.47,51.75,0,33-17.71,52.57-47.47,52.57h-16V450.17H306c165.22,0,222.77-76.76,224.85-189.42H465.8l-.23-104.32ZM393.2,214.66h18.88l-8.69-29.52h-1.62Zm-40.64,46.2,31.61-104.43h36.94L452.6,260.86h-27l-6-20.26h-34l-5.9,20.26Zm-12.38-26.05v25.94H275.91V156.43h62.18v25.93H301.85v12.27h34.27v25.94H301.85v14.36h38.33Z"/></g></g></svg>