<svg xmlns="http://www.w3.org/2000/svg" xmlns:xlink="http://www.w3.org/1999/xlink" viewBox="0 0 854.2 511.37"><defs><style>.cls-1{fill:#fff;}.cls-1,.cls-2,.cls-3{fill-rule:evenodd;}.cls-2{fill:#424143;}.cls-3{fill:#ffcb04;}.cls-4{mask:url(#mask);}.cls-5{mask:url(#mask-2-2);}.cls-6{mask:url(#mask-3);}</style><mask id="mask" x="139.93" y="0" width="69.11" height="99.77" maskUnits="userSpaceOnUse"><g id="mask-2"><polygon id="path-1" class="cls-1" points="139.93 0 209.05 0 209.05 99.77 139.93 99.77 139.93 0"/></g></mask><mask id="mask-2-2" x="139.93" y="411.6" width="69.11" height="99.77" maskUnits="userSpaceOnUse"><g id="mask-4"><polygon id="path-3" class="cls-1" points="139.93 411.6 209.05 411.6 209.05 511.37 139.93 511.37 139.93 411.6"/></g></mask><mask id="mask-3" x="0" y="0" width="854.2" height="511.37" maskUnits="userSpaceOnUse"><g id="mask-6"><polygon id="path-5" class="cls-1" points="0 511.37 854.2 511.37 854.2 0 0 0 0 511.37"/></g></mask></defs><g id="Layer_2" data-name="Layer 2"><g id="Layer_1-2" data-name="Layer 1"><g id="InPost-www"><g id="strona-glowna"><g id="header"><g id="logo"><path id="Fill-1" class="cls-2" d="M368.68,402.49a15.35,15.35,0,0,1,0-23q5.19-4.25,14-4.25c5.88,0,10.5,1.42,14,4.25a15.26,15.26,0,0,1,0,23c-3.46,2.84-8.08,4.26-14,4.26s-10.55-1.42-14-4.26M392.86,391c0-5.29-4-8.68-10.17-8.68s-10.17,3.39-10.17,8.68,4,8.62,10.17,8.62,10.17-3.33,10.17-8.62"/><path id="Fill-3" class="cls-2" d="M435.08,376h8.79v30H435.3v-4.64c-2,3.33-6.1,5.4-11.38,5.4-4.56,0-7.91-1.14-10.49-3.6-2.7-2.62-3.8-6.11-3.8-12.5V376h8.85v14.85c0,3.71.83,5.9,2.64,7.15a8.64,8.64,0,0,0,5,1.31,8.53,8.53,0,0,0,8.35-5.35,10.19,10.19,0,0,0,.61-3.82Z"/><path id="Fill-5" class="cls-2" d="M476.51,398.89V406h-11c-6.1,0-8.63-2.4-8.63-8.08V383h-5.61v-7h5.61v-8h8.85v8h10.82v7H465.69v12.93c0,2.24.77,2.95,3.46,2.95Z"/><path id="Fill-7" class="cls-2" d="M505.21,402.49a15.37,15.37,0,0,1,0-23q5.21-4.25,14-4.25c5.88,0,10.49,1.42,14,4.25a15.26,15.26,0,0,1,0,23c-3.47,2.84-8.08,4.26-14,4.26s-10.55-1.42-14-4.26M529.4,391c0-5.29-4-8.68-10.17-8.68s-10.17,3.39-10.17,8.68,4,8.62,10.17,8.62,10.17-3.33,10.17-8.62"/><path id="Fill-9" class="cls-2" d="M566.26,371.93h-5.55c-2.25,0-3.13.6-3.13,2.18V376h8.68v7h-8.68v23h-8.85V383h-4.94v-7h4.94v-2.29c0-5.84,3.8-8.57,11.54-8.57h6Z"/><path id="Fill-11" class="cls-2" d="M614,398.89V406H603c-6.1,0-8.63-2.4-8.63-8.08V383h-5.6v-7h5.6v-8h8.85v8H614v7H603.21v12.93c0,2.24.77,2.95,3.46,2.95Z"/><path id="Fill-13" class="cls-2" d="M622.77,406V365.16h8.84v15.12c2.25-3.11,6.43-5,11.54-5,4.4,0,7.86,1.2,10.5,3.6,2.69,2.57,3.84,6.17,3.84,12.5V406h-8.84V391.14c0-3.44-.77-5.51-2.48-6.82a8.43,8.43,0,0,0-5.27-1.64c-4.18,0-7.47,2.07-8.74,5.4a11.2,11.2,0,0,0-.55,3.83V406Z"/><path id="Fill-15" class="cls-2" d="M670.45,402.6c-3.4-2.78-5.11-6.6-5.11-11.51a14.13,14.13,0,0,1,5.33-11.41c3.57-2.95,8.14-4.42,13.79-4.42s10,1.31,13.41,3.93a12.11,12.11,0,0,1,5.17,10.1,6.7,6.7,0,0,1-.06,1.09c0,.38-.05,1.19-.1,2.56H674.41c.6,4.2,4.73,6.66,11.16,6.66,4.61,0,9.17-1.47,12-3.87l4.72,5.29c-3.24,3.55-9.89,5.73-17.53,5.73-6.1,0-10.82-1.36-14.29-4.15m4.23-15.17h19c-.61-3.44-4-5.57-9.13-5.57s-9,2.07-9.89,5.57"/><path id="Fill-17" class="cls-2" d="M728.45,406V365.16h8.85v14.41c2.91-2.84,7.09-4.31,11.92-4.31a18,18,0,0,1,12.48,4.36,15.82,15.82,0,0,1,0,22.76,18,18,0,0,1-12.48,4.38c-5,0-9.28-1.59-12.14-4.43V406ZM757.52,391c0-5.19-4-8.63-9.94-8.63-6.16,0-10.28,3.44-10.28,8.63s4.12,8.56,10.28,8.56c6,0,9.94-3.38,9.94-8.56Z"/><path id="Fill-19" class="cls-2" d="M778.35,402.49a15.37,15.37,0,0,1,0-23q5.21-4.25,14-4.25c5.88,0,10.5,1.42,14,4.25a15.26,15.26,0,0,1,0,23c-3.46,2.84-8.08,4.26-14,4.26s-10.55-1.42-14-4.26M802.54,391c0-5.29-4-8.68-10.17-8.68S782.2,385.74,782.2,391s4,8.62,10.17,8.62,10.17-3.33,10.17-8.62"/><polygon id="Fill-21" class="cls-2" points="854.2 405.99 842.44 405.99 833.92 396.28 825.35 405.99 814.36 405.99 828.54 390.87 814.63 376.02 826.23 376.02 834.42 385.13 842.55 376.02 853.54 376.02 839.8 390.54 854.2 405.99"/><path id="Fill-23" class="cls-2" d="M455.17,326.37H431.55V258.94c0-14.2-6.31-21.84-17.75-22.72-7.14-.56-18.45,1.12-26.65,2.95v87.2H363.51V222.47s28.74-6.37,54.69-6.35c11.23,0,20.2,4,26.9,10.66s10.07,16,10.07,27.89Z"/><path id="Fill-25" class="cls-2" d="M853.69,327.08a48.71,48.71,0,0,1-12.09,1.48q-20,0-26.39-8.83-5.13-6.93-5.13-26.29V185.31H833.4v30.57h20.71V234.8H833.4V292q0,9.25,2.38,12.21,2.79,3.76,11.88,3.77a48.69,48.69,0,0,0,6-.42Z"/><path id="Fill-27" class="cls-3" d="M123.6,256a191.55,191.55,0,0,1-61.8,10.62A191.55,191.55,0,0,1,0,256a191.55,191.55,0,0,1,61.8-10.62A191.55,191.55,0,0,1,123.6,256"/><g id="Group-31"><g class="cls-4"><path id="Fill-29" class="cls-3" d="M209.05,99.77a184.77,184.77,0,0,1-43.6-43.95A179.58,179.58,0,0,1,139.93,0a185,185,0,0,1,43.61,43.94,179.79,179.79,0,0,1,25.51,55.83"/></g></g><path id="Fill-32" class="cls-3" d="M146.46,167.18A190.7,190.7,0,0,1,86.78,148.3a186.19,186.19,0,0,1-49.45-37.62A190.92,190.92,0,0,1,97,129.55a186.15,186.15,0,0,1,49.44,37.63"/><path id="Fill-34" class="cls-3" d="M206.09,307.13c17.54-.16,38.7-13.88,38.7-13.88s-49.06-14.75-46-58.45c9.67-71.71,68.14-128,141.32-137.08a170.65,170.65,0,0,0-23.76-1.59c-90.52.4-163.58,72.19-163.17,160.33s74.12,159.28,164.65,158.89a169.69,169.69,0,0,0,22.24-1.61c-64.23-8-116.51-52.07-135.27-110.35"/><g id="Group-38"><g class="cls-5"><path id="Fill-36" class="cls-3" d="M209.05,411.6a184.53,184.53,0,0,0-43.6,43.95,179.47,179.47,0,0,0-25.52,55.82,184.91,184.91,0,0,0,43.61-43.95,179.68,179.68,0,0,0,25.51-55.82"/></g></g><path id="Fill-39" class="cls-3" d="M146.46,344.19a190.7,190.7,0,0,0-59.68,18.88,186,186,0,0,0-49.45,37.62A190.92,190.92,0,0,0,97,381.82a186.39,186.39,0,0,0,49.44-37.63"/><g class="cls-6"><polygon id="Fill-41" class="cls-2" points="316.05 326.25 340.14 326.25 340.14 185.19 316.05 185.19 316.05 326.25"/></g><g class="cls-6"><path id="Fill-43" class="cls-2" d="M557.6,233.4q0-25.67-25.26-25.65H502.63v50.88H531.9q12.09,0,18.9-6.62t6.8-18.61m24.34,0q0,21.65-13.48,34.8t-36.62,13.14H502.63v44.57H478.54V184.82h51.57q25,0,38.45,12.94t13.38,35.64"/></g><g class="cls-6"><path id="Fill-44" class="cls-2" d="M669.07,270.46q0-15.93-7.44-25.26t-19.77-9.33a24,24,0,0,0-19.76,9.43q-7.44,9.45-7.44,25.16,0,15.93,7.44,25.25t19.76,9.34q12.32,0,19.77-9.34t7.44-25.25m24.4-.11q0,25.44-14.36,41t-37.25,15.56q-22.87,0-37.24-15.56t-14.37-41q0-25.43,14.37-40.9T641.86,214q23.1,0,37.36,15.45t14.25,40.9"/></g><g class="cls-6"><path id="Fill-45" class="cls-2" d="M796.1,289.9q0,16-12.54,26.29t-33,10.3q-32,0-49.46-18.93L719,292.64q13.39,13,31.31,13,10,0,15.78-3.89c3.88-2.6,5.83-5.85,5.83-9.78q0-6.72-6.7-9.25-3.88-1.47-20.73-4-20.29-2.94-29-8.83-10.14-7.14-10.13-21.44,0-14.51,12.3-24.29t32.83-9.78q24.81,0,42.32,16.19l-14,14.72q-12.74-11.13-28.94-11.14-20.73,0-20.72,11.57,0,6.72,9.5,9.25,13.38,2.08,26.56,4.41,30.87,5.67,30.88,30.48"/></g></g></g></g></g></g></g></svg>