<svg xmlns="http://www.w3.org/2000/svg" viewBox="0 0 659.94 512.04"><defs><style>.cls-1{fill:#6c6bbd;}.cls-2{fill:#d32011;}.cls-3{fill:#0099df;}.cls-4{fill:#110f0d;}</style></defs><g id="Layer_2" data-name="Layer 2"><g id="Layer_1-2" data-name="Layer 1"><rect class="cls-1" x="240.83" y="43.57" width="178.46" height="320.75"/><path class="cls-2" d="M252,204A203.43,203.43,0,0,1,330,43.57,203.13,203.13,0,0,0,204,0C91.31,0,0,91.31,0,204s91.31,204,204,204a203.08,203.08,0,0,0,126-43.58A203.94,203.94,0,0,1,252,204"/><path class="cls-3" d="M659.94,204c0,112.64-91.3,204-204,204a203.1,203.1,0,0,1-126-43.58,204,204,0,0,0,0-320.75A203.15,203.15,0,0,1,456,0c112.65,0,204,91.31,204,204"/><path class="cls-4" d="M479.5,454.91a27.66,27.66,0,0,1,8.32,1.45l-3.62,11a18.68,18.68,0,0,0-7.41-1.44c-7.78,0-11.57,5.06-11.57,13.92v30.38H453.46V456.17h11.76v6.51A16.11,16.11,0,0,1,479.5,454.91ZM436.11,467H416.76v24.41c0,5.43,2,9,7.77,9A22.86,22.86,0,0,0,435,497.4l3.44,10.12a28.33,28.33,0,0,1-14.65,4.16c-13.92,0-18.8-7.41-18.8-20.07V466.84H394V456h11V439.54h11.93V456h19.17v11Zm-150.8,11.57c1.27-7.77,6-13.19,14.47-13.19,7.59,0,12.47,4.7,13.74,13.19Zm40.32,4.71c-.18-16.82-10.48-28.39-25.67-28.39-15.91,0-26.94,11.57-26.94,28.39,0,17.17,11.57,28.38,27.84,28.38,8.14,0,15.55-2,22.24-7.59l-5.78-8.68a25.72,25.72,0,0,1-15.73,5.6c-7.6,0-14.47-3.43-16.28-13.19h40.14C325.45,486.37,325.63,484.92,325.63,483.3Zm51.71-13.2a35.12,35.12,0,0,0-16.81-4.7c-6.51,0-10.31,2.35-10.31,6.32,0,3.62,4.16,4.7,9.22,5.25l5.61.72c11.75,1.63,19,6.69,19,16.27,0,10.31-9,17.72-24.77,17.72-8.86,0-17-2.35-23.5-7.05l5.6-9.22c4,3.07,9.95,5.6,18.08,5.6,8,0,12.3-2.35,12.3-6.5,0-3.08-3.08-4.71-9.58-5.61l-5.61-.72c-12.11-1.63-18.62-7.23-18.62-15.91,0-10.85,8.86-17.36,22.6-17.36,8.68,0,16.45,2,22.06,5.6Zm145.37-4a16.41,16.41,0,0,0-6.69,1.26A17.76,17.76,0,0,0,510.6,471a19.09,19.09,0,0,0-3.62,5.43,20.35,20.35,0,0,0,0,14.1A14.28,14.28,0,0,0,510.6,496a16.71,16.71,0,0,0,5.42,3.62,17,17,0,0,0,6.69,1.26,16.41,16.41,0,0,0,6.69-1.26,14.4,14.4,0,0,0,5.43-3.62,15.8,15.8,0,0,0,3.61-5.42,20.2,20.2,0,0,0,0-14.1,14.38,14.38,0,0,0-3.61-5.43,16.7,16.7,0,0,0-12.12-4.88Zm0-11.21a31.47,31.47,0,0,1,11.75,2.17,27.09,27.09,0,0,1,9.23,6,28.43,28.43,0,0,1,6.14,9,31,31,0,0,1,0,22.78,25.87,25.87,0,0,1-6.14,9,28.92,28.92,0,0,1-9.23,6A30.8,30.8,0,0,1,522.71,512,31.51,31.51,0,0,1,511,509.87a26.93,26.93,0,0,1-9.22-6,28.74,28.74,0,0,1-6.15-9,31,31,0,0,1,0-22.78,25.94,25.94,0,0,1,6.15-9,27,27,0,0,1,9.22-6A30.84,30.84,0,0,1,522.71,454.91ZM216.43,483.3c0-9.59,6.14-17.36,16.45-17.36,9.76,0,16.27,7.41,16.27,17.36s-6.51,17.35-16.27,17.35C222.57,500.65,216.43,492.88,216.43,483.3Zm43.75,0V456.17H248.43v6.51c-3.8-4.88-9.4-7.95-17.18-7.95-15.19,0-27.12,11.93-27.12,28.38s11.93,28.39,27.12,28.39c7.78,0,13.38-3.07,17.18-7.95v6.51h11.75Zm-66.36,27.12v-34c0-12.84-8.13-21.34-21.33-21.52-6.87-.18-14.1,2-19,9.58-3.79-6-9.58-9.58-17.9-9.58-5.78,0-11.39,1.63-15.91,7.95v-6.69H107.94v54.07h11.93v-30c0-9.4,5.25-14.46,13.2-14.46,7.78,0,11.76,5.06,11.76,14.28v30.2h11.93v-30c0-9.4,5.42-14.46,13.2-14.46,8.13,0,11.93,5.06,11.93,14.28v30.2h11.93Z"/></g></g></svg>