<svg xmlns="http://www.w3.org/2000/svg" viewBox="0 0 659.83 512"><defs><style>.cls-1{fill:#ff5f00;}.cls-2{fill:#eb001b;}.cls-3{fill:#f79e1b;}</style></defs><g id="Layer_2" data-name="Layer 2"><g id="Layer_1-2" data-name="Layer 1"><path d="M120.18,510.73v-34c0-13-8-21.51-21.5-21.51-6.87,0-14.1,2.35-19.34,9.58-4-6.14-9.58-9.58-18.07-9.58-5.61,0-11.39,1.63-15.91,7.95v-6.86H33.62v54.39H45.54v-30c0-9.57,5.06-14.09,13-14.09s11.92,5.06,11.92,14.09v30H82.41v-30c0-9.57,5.6-14.09,13-14.09,8,0,11.93,5.06,11.93,14.09v30Zm176.21-54.39H277.05V439.89H265.13v16.45H254.28v10.84h10.85v24.94c0,12.47,5.06,19.88,18.61,19.88a30,30,0,0,0,14.64-4L295,497.9a18.16,18.16,0,0,1-10.12,2.89c-5.61,0-8-3.43-8-9v-24.4h19.34v-11Zm100.67-1.09A15.69,15.69,0,0,0,383,463.2v-6.86H371v54.39H383V480.19c0-9,4-14.09,11.39-14.09a35.08,35.08,0,0,1,7.41,1.08l3.43-11.39A41.17,41.17,0,0,0,397.06,455.25Zm-152.36,5.6c-5.6-4-13.55-5.6-22-5.6-13.56,0-22.6,6.87-22.6,17.53,0,9,6.87,14.1,18.62,15.91l5.6.54c6.15,1.08,9.58,2.89,9.58,5.6,0,4-4.52,6.87-12.47,6.87a32,32,0,0,1-18.07-5.6l-5.6,9c6.14,4.52,14.63,6.87,23.13,6.87,15.9,0,24.94-7.41,24.94-17.53,0-9.58-7.41-14.64-18.62-16.45l-5.6-.54c-5.06-.54-9-1.63-9-5.06,0-4,4-6.14,10.12-6.14,6.86,0,13.55,2.89,17,4.51Zm316.1-5.6a15.69,15.69,0,0,0-14.1,7.95v-6.86H534.77v54.39H546.7V480.19c0-9,4-14.09,11.39-14.09a35.17,35.17,0,0,1,7.41,1.08l3.43-11.39A43,43,0,0,0,560.8,455.25ZM409,483.45c0,16.44,11.38,28.37,28.91,28.37,8,0,13.56-1.63,19.34-6.15l-5.6-9.57a22.55,22.55,0,0,1-14.1,5.06c-9.58,0-16.45-6.87-16.45-17.53,0-10.12,6.87-17,16.45-17.53a22.49,22.49,0,0,1,14.1,5.06l5.6-9.58c-5.6-4.52-11.39-6.15-19.34-6.15C420.37,455.25,409,467.18,409,483.45Zm109.88,0V456.34H506.94v6.86c-4-5.06-9.58-7.95-17-7.95-15.36,0-27.11,11.93-27.11,28.38S474.77,512,490,512c7.95,0,13.56-2.89,17-7.95v6.87h11.93Zm-43.56,0c0-9.58,6.15-17.54,16.45-17.54,9.58,0,16.44,7.41,16.44,17.54,0,9.57-6.86,17.53-16.44,17.53C481.46,500.43,475.31,493.2,475.31,483.45Zm-142.23-28.2c-15.9,0-27.11,11.39-27.11,28.38S317.36,512,333.8,512c8,0,15.91-2.35,22.05-7.41l-5.6-8.49a26.61,26.61,0,0,1-15.9,5.6c-7.41,0-14.64-3.44-16.45-13H358v-4.52C358.56,466.46,348.44,455.25,333.08,455.25Zm0,10.12c7.41,0,12.47,4.52,13.55,13H318.26C319.53,471.16,324.59,465.37,333.08,465.37Zm295.13,18.08V434.83H616.28V463.2c-4-5.06-9.58-7.95-17-7.95-15.36,0-27.11,11.93-27.11,28.38S584.11,512,599.29,512c8,0,13.56-2.89,17-7.95v6.87h11.93Zm-43.74,0c0-9.58,6.15-17.54,16.45-17.54,9.58,0,16.44,7.41,16.44,17.54,0,9.57-6.86,17.53-16.44,17.53C590.8,500.43,584.47,493.2,584.47,483.45Zm-397.42,0V456.34H175.12v6.86c-4-5.06-9.57-7.95-17-7.95-15.37,0-27.11,11.93-27.11,28.38S143,512,158.14,512c8,0,13.55-2.89,17-7.95v6.87h11.93Zm-44.09,0c0-9.58,6.14-17.54,16.44-17.54,9.58,0,16.45,7.41,16.45,17.54C175.85,493,169,501,159.4,501,149.1,500.43,143,493.2,143,483.45Z"/><rect class="cls-1" x="240.91" y="43.56" width="178.38" height="320.43"/><path class="cls-2" d="M252.11,203.86a204.63,204.63,0,0,1,77.54-160.3,203.86,203.86,0,1,0,0,320.61A203.84,203.84,0,0,1,252.11,203.86Z"/><path class="cls-3" d="M659.83,203.86A203.74,203.74,0,0,1,330.19,364.17a204.49,204.49,0,0,0,0-320.61A202.84,202.84,0,0,1,456,0C568.75,0,659.83,91.63,659.83,203.86Z"/></g></g></svg>