<svg xmlns="http://www.w3.org/2000/svg" viewBox="0 0 1024.27 259.93"><defs><style>.cls-1{fill:#003087;}.cls-2{fill:#009cde;}.cls-3{fill:#012169;}</style></defs><g id="Layer_2" data-name="Layer 2"><g id="Layer_1-2" data-name="Layer 1"><path class="cls-1" d="M187.65,19.68C175.52,5.93,154,0,125.93,0H45.07A11.34,11.34,0,0,0,33.75,9.7L.06,222.9A7,7,0,0,0,6.8,231H56.66l12.4-79.51-.27,2.43a11.34,11.34,0,0,1,11.32-9.71h23.72c46.62,0,83-18.86,93.52-73.58l.81-4.85c3.77-19.94.54-33.69-10.51-46.08"/><path class="cls-2" d="M797.88,121.24c-3,19.94-18.33,19.94-33.15,19.94h-8.36l5.93-37.46a4.89,4.89,0,0,1,4.58-4h3.78c10,0,19.67,0,24.52,5.66,3,3.78,3.78,8.63,2.7,15.91M791.41,69H735.62a7.56,7.56,0,0,0-7.55,6.47L705.43,218.26a4.6,4.6,0,0,0,4.58,5.39h28.57a5.46,5.46,0,0,0,5.39-4.58l6.47-40.43a7.56,7.56,0,0,1,7.55-6.46h17.52c36.65,0,58-17.79,63.34-53.1,2.42-15.36,0-27.49-7-35.85C824,73.8,810,69,791.41,69"/><path class="cls-1" d="M400.28,121.24c-3,19.94-18.33,19.94-33.15,19.94h-8.36l5.93-37.46a4.89,4.89,0,0,1,4.59-4h3.77c10,0,19.67,0,24.53,5.66,3,3.78,3.77,8.63,2.69,15.91M393.81,69H338a7.56,7.56,0,0,0-7.55,6.47L307.83,218.26a4.61,4.61,0,0,0,4.59,5.39H339.1a7.56,7.56,0,0,0,7.55-6.46l6.19-38.55a7.56,7.56,0,0,1,7.55-6.46h17.52c36.66,0,57.95-17.79,63.34-53.1,2.42-15.36,0-27.49-7-35.85C426.69,73.8,412.68,69,393.81,69"/><path class="cls-1" d="M523.21,172.34c-2.69,15.36-14.55,25.6-30.18,25.6-7.82,0-14-2.42-17.79-7.27-4-4.59-5.39-11.32-4.31-18.87a29.93,29.93,0,0,1,29.91-25.61c7.55,0,13.75,2.43,17.79,7.28,4.31,4.85,5.93,11.59,4.58,18.87m37.2-51.75H533.72a4.64,4.64,0,0,0-4.58,4l-1.08,7.55-1.88-2.7c-5.66-8.35-18.6-11.32-31.54-11.32-29.37,0-54.71,22.37-59.56,53.64-2.43,15.63,1.08,30.45,10,41,8.09,9.7,19.68,13.47,33.69,13.47a51,51,0,0,0,36.93-15.36l-1.08,7.55a4.61,4.61,0,0,0,4.58,5.39h24a7.55,7.55,0,0,0,7.54-6.47L565.26,126a4.82,4.82,0,0,0-4.85-5.39"/><path class="cls-2" d="M920.81,172.34c-2.69,15.36-14.55,25.6-30.18,25.6-7.82,0-14-2.42-17.79-7.27-4.05-4.59-5.39-11.32-4.32-18.87a29.94,29.94,0,0,1,29.92-25.61c7.55,0,13.75,2.43,17.79,7.28s5.66,11.59,4.58,18.87M958,120.59H931.32a4.64,4.64,0,0,0-4.58,4l-1.08,7.55-1.88-2.7c-5.66-8.35-18.6-11.32-31.54-11.32-29.38,0-54.71,22.37-59.56,53.64-2.43,15.63,1.08,30.45,10,41,8.09,9.7,19.68,13.47,33.69,13.47a51,51,0,0,0,36.93-15.36l-1.08,7.55a4.6,4.6,0,0,0,4.58,5.39h24a7.56,7.56,0,0,0,7.54-6.47L962.86,126a4.82,4.82,0,0,0-4.85-5.39"/><path class="cls-1" d="M702.6,120.4h-27a7.94,7.94,0,0,0-6.47,3.5l-36.66,54.44-15.63-52.28a8.09,8.09,0,0,0-7.55-5.66H582.93a4.61,4.61,0,0,0-4.31,6.2l29.65,86.78L580.5,252.46a4.63,4.63,0,0,0,3.78,7.28H611a8.91,8.91,0,0,0,6.47-3.23l89.21-128.84a4.81,4.81,0,0,0-4-7.27"/><path class="cls-2" d="M989.41,72.77l-22.9,145.54a4.6,4.6,0,0,0,4.58,5.39H994a7.55,7.55,0,0,0,7.54-6.47l22.64-142.84A4.6,4.6,0,0,0,1019.6,69H994a4.86,4.86,0,0,0-4.59,3.77"/><path class="cls-1" d="M187.65,19.68C175.52,5.93,154,0,125.93,0H45.07A11.34,11.34,0,0,0,33.75,9.7L.06,222.9A7,7,0,0,0,6.8,231H56.66l12.4-79.51-.27,2.43a11.34,11.34,0,0,1,11.32-9.71h23.72c46.62,0,83-18.86,93.52-73.58l.81-4.85c3.77-19.94.54-33.69-10.51-46.08"/><path class="cls-1" d="M83.15,66.31a9.77,9.77,0,0,1,5.66-7.54,11.32,11.32,0,0,1,4.32-1.08h63.06A123.36,123.36,0,0,1,177,59.3a38.38,38.38,0,0,1,5.39,1.08,36.19,36.19,0,0,1,5.12,1.35l2.42.81a36.59,36.59,0,0,1,8.63,3.77c3.23-20.21,0-34-11-46.36C175.33,6.21,153.77.28,125.74.28H44.88A11.34,11.34,0,0,0,33.56,10L.41,222.91A7.05,7.05,0,0,0,7.15,231H57l12.4-79.51Z"/><path class="cls-2" d="M198.76,66.14h0L198,71c-10.51,54.72-47.16,73.58-93.52,73.58H80.71a11.34,11.34,0,0,0-11.32,9.71L57,231.09l-3.5,21.83a6,6,0,0,0,5.93,7h42a10.11,10.11,0,0,0,10-8.62l.54-2.16L119.79,199l.54-2.7a10.36,10.36,0,0,1,10-8.62h6.2c40.7,0,72.5-16.44,81.94-64.42,3.77-19.94,1.88-36.65-8.36-48.51-3-3.51-7-6.2-11.32-8.63"/><path class="cls-3" d="M187.58,61.61c-1.62-.54-3.24-.81-5.13-1.35-1.61-.27-3.5-.81-5.39-1.08a127.87,127.87,0,0,0-20.75-1.61H93a7.91,7.91,0,0,0-4.31,1.08A9.77,9.77,0,0,0,83,66.19L69.52,151.36l-.27,2.43a11.34,11.34,0,0,1,11.32-9.71h23.72c46.63,0,83-18.86,93.53-73.58l.81-4.85A85.41,85.41,0,0,0,190,61.88a3.78,3.78,0,0,1-2.42-.27"/></g></g></svg>