<svg xmlns="http://www.w3.org/2000/svg" xmlns:xlink="http://www.w3.org/1999/xlink" viewBox="0 0 1236.63 993.45"><defs><style>.cls-1{fill:none;}.cls-2{clip-path:url(#clip-path);}.cls-3{fill:url(#linear-gradient);}</style><clipPath id="clip-path" transform="translate(107.02 331.71)"><path class="cls-1" d="M528.94,105.34c-.56,45.95,40.91,71.72,72.29,86.85C633.44,207.88,644.09,218,644.09,232c-.28,21.58-25.77,30.82-49.59,31.38-41.46.56-65.56-11.2-84.89-20.17l-14.85,70c19.34,9,54.92,16.53,91.9,17.09,86.85,0,143.44-42.86,143.72-109.26.28-84.33-116.55-89.09-115.71-126.64.28-11.48,11.21-23.53,35-26.61,11.77-1.68,44.55-2.8,81.53,14.29l14.57-67.8C725.9,7,700.4,0,668.46,0c-81.8,0-139.24,43.42-139.52,105.34M885.31,5.6a37.21,37.21,0,0,0-35,23.54L726.46,325h86.85l17.37-47.63h105.9L946.67,325h76.48L956.47,5.6H885.31m12.05,86.29L922.29,211.8H853.65L897.36,91.89M423.6,5.6,355.24,325h82.65L506.25,5.6H423.6m-122.15,0L215.44,223,180.7,38.1c-4.2-20.73-20.17-32.5-38.1-32.5H2L0,14.85C28.86,21,61.64,31.1,81.53,42c12,6.73,15.69,12.33,19.61,28L167,325h87.41L388.3,5.6H301.45"/></clipPath><linearGradient id="linear-gradient" x1="0.39" y1="421.77" x2="2.45" y2="421.77" gradientTransform="matrix(419.71, -154.57, -154.57, -419.71, 65227.2, 177730.97)" gradientUnits="userSpaceOnUse"><stop offset="0" stop-color="#222357"/><stop offset="1" stop-color="#254aa5"/></linearGradient></defs><g id="Layer_2" data-name="Layer 2"><g id="Layer_1-2" data-name="Layer 1"><g class="cls-2"><polyline class="cls-3" points="0 370.93 1007.46 0 1236.63 622.52 229.17 993.45"/></g></g></g></svg>